<svg width="23" height="19" viewBox="0 0 23 19" fill="none" xmlns="http://www.w3.org/2000/svg">
<path d="M22.4202 2.65762C21.7253 2.97202 20.9576 3.16229 20.2082 3.28795C20.5638 3.22842 21.0863 2.58436 21.2959 2.32389C21.6154 1.92707 21.8804 1.47428 22.0295 0.985381C22.0488 0.947225 22.0636 0.899404 22.0249 0.870406C21.9771 0.851583 21.9461 0.861255 21.9079 0.880079C21.071 1.32828 20.2062 1.65336 19.2854 1.88382C19.2091 1.90265 19.1521 1.88382 19.1042 1.83549C19.0284 1.74951 18.9562 1.66812 18.8753 1.60147C18.4882 1.27232 18.073 1.01387 17.605 0.823092C16.9904 0.572791 16.3189 0.46647 15.657 0.509204C15.0124 0.55143 14.3801 0.732542 13.8088 1.03117C13.2359 1.33031 12.7246 1.74697 12.3171 2.2491C11.8964 2.76903 11.5861 3.38207 11.4268 4.03275C11.2742 4.66053 11.2864 5.2812 11.38 5.9156C11.3943 6.02091 11.3846 6.03515 11.2895 6.02091C7.68807 5.4847 4.70277 4.19656 2.27913 1.43461C2.17382 1.31454 2.11685 1.31454 2.03087 1.44376C0.970149 3.03357 1.48447 5.58695 2.80923 6.84202C2.98628 7.0099 3.16741 7.17677 3.36328 7.32939C3.29155 7.34414 2.41039 7.24901 1.62438 6.84202C1.51958 6.77537 1.46618 6.81404 1.45702 6.93308C1.44735 7.10504 1.46209 7.26326 1.48549 7.44946C1.68899 9.06064 2.80518 10.5507 4.33344 11.1327C4.51455 11.2091 4.71551 11.2757 4.91087 11.3093C4.56289 11.3856 4.20423 11.44 3.20557 11.3617C3.08144 11.3383 3.03411 11.4003 3.08143 11.5199C3.83233 13.5645 5.45113 14.1735 6.66448 14.5199C6.82677 14.5484 6.98959 14.5484 7.15238 14.5866C7.14221 14.6013 7.13252 14.6013 7.12286 14.6156C6.72095 15.2286 5.326 15.685 4.67634 15.9119C3.49504 16.325 2.20844 16.5107 0.959984 16.3875C0.760557 16.358 0.718335 16.3606 0.664408 16.3875C0.609464 16.4216 0.656777 16.4694 0.721387 16.5213C0.97474 16.6887 1.23266 16.8368 1.49568 16.9802C2.2883 17.4004 3.115 17.7352 3.97986 17.9738C8.44407 19.2065 13.4725 18.3004 16.8246 14.9702C19.4568 12.3547 20.3797 8.74776 20.3797 5.13671C20.3797 4.99528 20.5465 4.91744 20.6452 4.84266C21.3305 4.32832 21.883 3.71224 22.3938 3.02493C22.5087 2.87027 22.5097 2.73291 22.5097 2.67644C22.5097 2.66677 22.5097 2.65762 22.5097 2.65762C22.5097 2.59962 22.5087 2.61743 22.4202 2.65762Z" fill="white"/>
</svg>
