<svg width="19" height="19" viewBox="0 0 19 19" fill="none" xmlns="http://www.w3.org/2000/svg">
<path d="M5.93199 15.3997L6.23673 15.5813C7.35546 16.2478 8.62835 16.6003 9.91701 16.6003C13.8929 16.6003 17.127 13.3662 17.127 9.39036C17.127 5.41501 13.8929 2.1804 9.91701 2.1804C5.94217 2.1804 2.70704 5.41501 2.70704 9.39036C2.70704 10.7029 3.0718 11.9957 3.76217 13.1286L3.94888 13.4354L3.22849 16.1241L5.93199 15.3997ZM0.851624 18.5L2.14181 13.6857C1.41125 12.367 1.02716 10.8902 1.02716 9.39036C1.02716 4.48858 5.01472 0.5 9.91701 0.5C14.8193 0.5 18.8079 4.48858 18.8079 9.39036C18.8079 14.2927 14.8193 18.2812 9.91701 18.2812C8.44571 18.2812 6.99221 17.9093 5.69134 17.2042L0.851624 18.5Z" fill="white"/>
<path fill-rule="evenodd" clip-rule="evenodd" d="M13.2241 10.6271C12.8578 10.4079 12.3821 10.1637 11.9507 10.3397C11.6205 10.4755 11.4094 10.9934 11.1947 11.2575C11.0848 11.3933 10.9536 11.4142 10.7847 11.3465C9.54333 10.8515 8.59198 10.0228 7.9067 8.88112C7.79071 8.70357 7.81154 8.56367 7.95145 8.39934C8.15851 8.15565 8.41848 7.87889 8.47445 7.55024C8.53041 7.2221 8.37628 6.8385 8.24044 6.54546C8.06696 6.17204 7.87312 5.63939 7.49868 5.42775C7.15477 5.23341 6.70147 5.34227 6.39521 5.59156C5.86611 6.02298 5.6107 6.69759 5.61833 7.3671C5.62087 7.55737 5.64428 7.74713 5.68854 7.93028C5.79537 8.37136 5.99888 8.78395 6.22883 9.17518C6.40181 9.47076 6.59005 9.7577 6.79304 10.0334C7.45695 10.9355 8.28317 11.7194 9.23962 12.3055C9.71784 12.598 10.2322 12.855 10.7653 13.031C11.3631 13.2284 11.8958 13.4339 12.5414 13.3113C13.217 13.1831 13.884 12.7649 14.1521 12.1137C14.2314 11.9204 14.2711 11.7057 14.2269 11.5022C14.1348 11.0809 13.565 10.8306 13.2241 10.6271Z" fill="white"/>
</svg>
