<svg width="161" height="50" viewBox="0 0 161 50" fill="none" xmlns="http://www.w3.org/2000/svg">
<path d="M84.9449 12.6072C84.9449 14.4074 83.4954 15.86 81.6922 15.86C79.8889 15.86 78.4394 14.4105 78.4394 12.6072C78.4394 10.8071 79.8451 9.35445 81.6922 9.35445C83.5361 9.40141 84.9449 10.8509 84.9449 12.6072ZM71.4987 19.1535C71.4987 19.4603 71.4987 19.9455 71.4987 19.9455C71.4987 19.9455 69.9615 17.9231 66.6211 17.9231C61.1737 17.9231 56.9097 22.0963 56.9097 27.8536C56.9097 33.5671 61.1268 37.7841 66.6211 37.7841C69.9615 37.7841 71.4987 35.7179 71.4987 35.7179V36.5538C71.4987 36.9482 71.8055 37.2582 72.2031 37.2582H76.2448V18.4522C76.2448 18.4522 72.5537 18.4522 72.2031 18.4522C71.8055 18.4522 71.4987 18.8028 71.4987 19.1535ZM71.4987 31.2379C70.7504 32.3367 69.2571 33.3041 67.457 33.3041C64.248 33.3041 61.7873 31.2817 61.7873 27.9006C61.7873 24.4725 64.248 22.497 67.457 22.497C69.2133 22.497 70.7974 23.5082 71.4987 24.5633V31.2379ZM79.2753 18.4522H84.0652V37.302H79.2753V18.4522ZM151.115 17.9669C147.818 17.9669 146.237 19.9894 146.237 19.9894V9.40141H141.447V37.302C141.447 37.302 145.138 37.302 145.489 37.302C145.883 37.302 146.193 36.9514 146.193 36.5976V35.7617C146.193 35.7617 147.731 37.8279 151.071 37.8279C156.518 37.8279 160.782 33.6109 160.782 27.8974C160.782 22.1433 156.518 17.9669 151.115 17.9669ZM150.323 33.2165C148.479 33.2165 147.026 32.2491 146.281 31.1502V24.4287C147.029 23.4174 148.654 22.3624 150.323 22.3624C153.532 22.3624 155.992 24.3848 155.992 27.7659C155.992 31.2379 153.532 33.2165 150.323 33.2165ZM138.943 26.1411V37.3458H134.153V26.6702C134.153 23.5521 133.142 22.3217 130.462 22.3217C129.012 22.3217 127.519 23.0699 126.552 24.1657V37.302H121.762V18.4522H125.584C125.979 18.4522 126.289 18.8028 126.289 19.1566V19.9487C127.694 18.4992 129.541 17.9262 131.385 17.9262C133.495 17.9262 135.252 18.5399 136.657 19.7264C138.285 21.1759 138.943 22.976 138.943 26.1411ZM110.031 17.9669C106.734 17.9669 105.153 19.9894 105.153 19.9894V9.40141H100.363V37.302C100.363 37.302 104.055 37.302 104.405 37.302C104.8 37.302 105.11 36.9514 105.11 36.5976V35.7617C105.11 35.7617 106.647 37.8279 109.987 37.8279C115.435 37.8279 119.699 33.6109 119.699 27.8974C119.742 22.1433 115.482 17.9669 110.031 17.9669ZM109.242 33.2165C107.398 33.2165 105.945 32.2491 105.2 31.1502V24.4287C105.949 23.4174 107.573 22.3624 109.242 22.3624C112.451 22.3624 114.912 24.3848 114.912 27.7659C114.909 31.2379 112.448 33.2165 109.242 33.2165ZM96.1903 17.9669C97.6398 17.9669 98.388 18.2299 98.388 18.2299V22.6692C98.388 22.6692 94.3902 21.3074 91.8856 24.1625V37.3427H87.0957V18.4491C87.0957 18.4491 90.7868 18.4491 91.1374 18.4491C91.5319 18.4491 91.8418 18.7997 91.8418 19.1535V19.9455C92.7654 18.8905 94.697 17.9669 96.1903 17.9669ZM46.2341 35.5864C45.9712 34.9728 45.752 34.3122 45.4859 33.7862C45.0914 32.8627 44.6938 32.0299 44.3432 31.2379L44.2994 31.194C40.8275 23.6804 37.1364 16.0791 33.2262 8.56553L33.0947 8.25872C32.7002 7.51048 32.3026 6.72156 31.9082 5.88567C31.426 4.96212 30.897 4.0417 30.108 3.11815C28.527 1.09573 26.1978 0 23.7371 0C21.2326 0 18.991 1.09886 17.3224 2.98666C16.5741 3.91021 16.0043 4.83063 15.5222 5.75418C15.1278 6.54624 14.7302 7.33517 14.3357 8.12723L14.2042 8.43404C10.3378 15.9477 6.60293 23.5489 3.13101 31.0625L3.08718 31.1502C2.73654 31.9423 2.33895 32.8189 1.94448 33.6986C1.68151 34.2684 1.46236 34.8413 1.19625 35.4987C0.53568 37.3427 0.360362 39.1021 0.58264 40.9023C1.15242 44.681 3.65696 47.7991 7.08505 49.2079C8.40306 49.7777 9.72108 50 11.1268 50C11.5212 50 12.0503 49.9562 12.4448 49.9123C14.1134 49.6932 15.7852 49.1641 17.4538 48.1999C19.5201 47.0572 21.4517 45.3885 23.6494 42.9716C25.8472 45.3885 27.8665 47.0133 29.8451 48.1999C31.5137 49.1672 33.1855 49.6932 34.8541 49.9123C35.2486 49.9562 35.7777 50 36.1721 50C37.5778 50 38.9835 49.737 40.2138 49.2079C43.7296 47.8023 46.1903 44.5933 46.7163 40.9023C47.1107 39.1898 46.8916 37.4335 46.2341 35.5864ZM23.6494 38.1786C20.9258 34.7505 19.2102 31.5447 18.5965 28.8648C18.3336 27.7221 18.2897 26.7109 18.4651 25.7905C18.5527 24.9984 18.8595 24.2972 19.2571 23.6804C20.2245 22.3186 21.8055 21.4827 23.6494 21.4827C25.4934 21.4827 27.1652 22.2747 28.0418 23.6804C28.4362 24.294 28.7462 24.9984 28.8338 25.7905C28.9653 26.714 28.9215 27.7253 28.7024 28.8648C28.1294 31.5447 26.3731 34.7536 23.6494 38.1786ZM43.6419 40.5516C43.2913 43.1438 41.5319 45.4292 39.0712 46.3966C37.8846 46.8787 36.5666 47.0572 35.2486 46.8787C33.9744 46.7472 32.7441 46.3089 31.426 45.5607C29.6259 44.5495 27.8226 43.0123 25.7126 40.6831C29.0092 36.6414 31.0284 32.9065 31.7767 29.6099C32.1273 28.0728 32.1711 26.6671 32.0397 25.3491C31.8205 24.0749 31.3791 22.9322 30.6778 21.921C29.1406 19.6794 26.5046 18.3614 23.6025 18.3614C20.7004 18.3614 18.1113 19.7232 16.5272 21.921C15.8228 22.9322 15.3845 24.0749 15.1653 25.3491C14.9462 26.6671 15.0338 28.1166 15.4283 29.6099C16.1765 32.9065 18.2396 36.6852 21.4924 40.7269C19.4262 43.0123 17.5822 44.5933 15.7789 45.6045C14.4609 46.3528 13.2306 46.7472 11.9564 46.9225C10.5945 47.054 9.32035 46.8787 8.13383 46.4404C5.67312 45.4292 3.91681 43.1877 3.56304 40.5955C3.43155 39.3213 3.51921 38.0909 4.00134 36.6852C4.13282 36.2031 4.3958 35.674 4.66191 35.1042C5.01254 34.3122 5.41014 33.4356 5.8046 32.5997L5.84843 32.5121C9.32035 25.0423 13.0114 17.441 16.8778 10.015L17.0093 9.70822C17.4038 8.95999 17.8013 8.17106 18.1958 7.42283C18.5903 6.63077 19.0317 5.88567 19.6015 5.2251C20.6565 4.03857 22.0622 3.38113 23.5994 3.38113C25.1365 3.38113 26.5422 4.0417 27.5972 5.2251C28.167 5.88567 28.6084 6.63077 29.0029 7.42283C29.3974 8.17106 29.795 8.95999 30.1894 9.70822L30.3209 10.015C34.1435 17.4848 37.8345 25.0861 41.3064 32.5559V32.5997C41.7009 33.3918 42.0547 34.3122 42.4491 35.1042C42.7121 35.7179 42.9313 36.2031 43.1097 36.6852C43.6858 38.0033 43.8611 39.2336 43.6419 40.5516Z" fill="#FF5A5F"/>
</svg>
