<svg width="198" height="38" viewBox="0 0 198 38" fill="none" xmlns="http://www.w3.org/2000/svg">
<path d="M13.2213 37.4189H5.82355V18.9704H0.782349V12.9662H5.82355V8.69432C5.82355 3.6316 8.05093 0 15.4325 0C16.9927 0 19.4461 0.31205 19.4461 0.31205V5.89127H16.869C14.2489 5.89127 13.2213 6.68753 13.2213 8.89339V12.9662H19.3439L18.8005 18.9704H13.2213V37.4189ZM30.201 12.4873C30.0934 12.4873 29.9804 12.4927 29.8728 12.4927C23.0131 12.4927 19.8711 17.6523 19.8711 24.98C19.8711 34.207 23.9439 37.9032 29.9266 37.9032C33.3484 37.9032 35.5973 36.4613 36.9638 33.7766V37.4243H44.0011V12.9715H36.9638V16.7323C35.8502 14.3112 33.5367 12.5196 30.201 12.4873ZM31.9926 18.2656C34.8764 18.2656 36.6034 20.2778 36.6034 23.6942L36.6088 27.1859C36.6088 29.4886 35.1776 32.1841 31.9926 32.1841C27.0913 32.1841 27.2204 26.89 27.2204 25.1253C27.2204 19.1964 29.8298 18.2656 31.9926 18.2656ZM46.8472 25.2006C46.8472 22.2308 46.7073 12.5088 59.3722 12.5088C64.4564 12.5088 66.5816 14.1283 66.5816 14.1283L64.8761 19.4223C64.8761 19.4223 62.7563 18.2549 59.9909 18.2549C56.4507 18.2549 54.1965 20.3047 54.1965 23.9148L54.2018 26.5026C54.2018 29.9728 56.3808 32.2863 60.0016 32.2863C62.5196 32.2863 64.8384 31.108 64.8384 31.108L66.5385 36.2891C66.5385 36.2891 64.5963 37.9139 59.4098 37.9139C47.3422 37.9085 46.8472 29.1873 46.8472 25.2006ZM107.847 12.4927C114.707 12.4927 117.897 17.6523 117.897 24.98C117.897 34.207 113.825 37.9032 107.842 37.9032C104.42 37.9032 101.891 36.4613 100.525 33.7766V37.4243L93.5738 37.4189V0.742463L100.95 0.096847V16.3987C102.015 13.5472 105.512 12.4927 107.847 12.4927ZM105.776 18.2656C102.892 18.2656 100.95 20.2778 100.95 23.6942L100.945 27.1859C100.939 29.4886 102.29 32.1841 105.776 32.1841C110.677 32.1841 110.548 26.89 110.548 25.1253C110.548 19.1964 107.939 18.2656 105.776 18.2656ZM79.3809 12.5142C71.6012 12.5142 67.4908 16.7592 67.4908 24.2968V25.6956C67.4908 35.4821 73.2583 38 80.1395 38C86.8271 38 89.8507 36.1277 89.8507 36.1277L88.468 31.1457C88.468 31.1457 84.9063 32.6629 81.0219 32.6629C76.9921 32.6629 75.2597 31.6353 74.8132 27.7616H90.4371V23.7641C90.4425 15.5971 85.8263 12.5142 79.3809 12.5142ZM79.5692 17.5016C82.2647 17.5016 84.0079 19.1533 83.911 22.984H74.8293C74.9854 18.9543 76.8684 17.5016 79.5692 17.5016ZM132.607 12.482C124.617 12.482 120.41 16.9851 120.41 25.0554C120.41 36.1277 127.662 37.9139 132.623 37.9139C139.886 37.9139 144.717 34.0026 144.717 25.1576C144.712 15.9521 139.283 12.482 132.607 12.482ZM132.505 18.2871C136.018 18.2871 137.411 20.918 137.411 23.9094V26.4811C137.411 30.1073 135.464 32.2056 132.494 32.2056C129.712 32.2056 127.759 30.2418 127.759 26.4811V23.9094C127.759 19.8958 130.083 18.2871 132.505 18.2871ZM159.411 12.482C151.421 12.482 147.214 16.9851 147.214 25.0554C147.214 36.1277 154.466 37.9139 159.427 37.9139C166.69 37.9139 171.521 34.0026 171.521 25.1576C171.516 15.9521 166.087 12.482 159.411 12.482ZM159.314 18.2871C162.827 18.2871 164.22 20.918 164.22 23.9094V26.4811C164.22 30.1073 162.273 32.2056 159.303 32.2056C156.522 32.2056 154.569 30.2418 154.569 26.4811V23.9094C154.569 19.8958 156.893 18.2871 159.314 18.2871ZM174.308 37.4189V0.742463L181.706 0.096847V24.6787L189.05 12.9662H196.867L189.211 25.0984L197.163 37.4189H189.324L181.706 25.4589V37.4189H174.308Z" fill="#1877F2"/>
</svg>
