<svg width="153" height="50" viewBox="0 0 153 50" fill="none" xmlns="http://www.w3.org/2000/svg">
<path d="M37.5411 17.6568H19.7194V22.9373H32.3431C31.7243 30.363 25.5362 33.4983 19.7194 33.4983C12.2524 33.4983 5.77555 27.6403 5.77555 19.4307C5.77555 11.4275 11.9636 5.28065 19.7194 5.28065C25.7012 5.28065 29.249 9.11727 29.249 9.11727L32.9619 5.28065C32.9619 5.28065 28.2177 0.000152588 19.5544 0.000152588C8.53956 0.000152588 0 9.32354 0 19.3482C0 29.2079 8.04451 38.8201 19.8431 38.8201C30.2391 38.8201 37.8298 31.6832 37.8298 21.1634C37.8298 18.9357 37.5411 17.6568 37.5411 17.6568Z" fill="#4285F4"/>
<path d="M52.1042 13.8202C44.8023 13.8202 39.563 19.5545 39.563 26.1964C39.563 32.962 44.6373 38.7788 52.1867 38.7788C59.0349 38.7788 64.6042 33.5396 64.6042 26.3614C64.6454 18.0693 58.1273 13.8202 52.1042 13.8202ZM52.1867 18.7294C55.7758 18.7294 59.1999 21.6172 59.1999 26.3201C59.1999 30.8993 55.8171 33.9109 52.1867 33.9109C48.1851 33.9109 45.0498 30.7343 45.0498 26.3201C45.0498 21.9472 48.1439 18.7294 52.1867 18.7294Z" fill="#EA4335"/>
<path d="M79.4134 13.8202C72.1114 13.8202 66.8722 19.5545 66.8722 26.1964C66.8722 32.962 71.9464 38.7788 79.4959 38.7788C86.344 38.7788 91.9133 33.5396 91.9133 26.3614C91.9133 18.0693 85.3952 13.8202 79.4134 13.8202ZM79.4959 18.7294C83.085 18.7294 86.5091 21.6172 86.5091 26.3201C86.5091 30.8993 83.1262 33.9109 79.4959 33.9109C75.4943 33.9109 72.359 30.7343 72.359 26.3201C72.3177 21.9472 75.453 18.7294 79.4959 18.7294Z" fill="#FBBC05"/>
<path d="M106.147 13.8202C99.4226 13.8202 94.1833 19.6783 94.1833 26.2789C94.1833 33.7871 100.289 38.7788 106.064 38.7788C109.612 38.7788 111.51 37.3762 112.913 35.726V38.2013C112.913 42.4917 110.314 45.0907 106.353 45.0907C102.558 45.0907 100.619 42.2441 99.9589 40.6352L95.1734 42.6567C96.8648 46.2458 100.289 49.9999 106.394 49.9999C113.078 49.9999 118.152 45.792 118.152 37.0049V14.5628H112.913V16.6667C111.304 14.9753 109.076 13.8202 106.147 13.8202ZM106.642 18.7294C109.942 18.7294 113.325 21.5347 113.325 26.3201C113.325 31.1881 109.942 33.8696 106.601 33.8696C103.012 33.8696 99.7114 30.9818 99.7114 26.3614C99.6701 21.5759 103.135 18.7294 106.642 18.7294Z" fill="#4285F4"/>
<path d="M141.377 13.8202C135.065 13.8202 129.744 18.8532 129.744 26.2789C129.744 34.1584 135.684 38.8201 141.996 38.8201C147.276 38.8201 150.536 35.9323 152.433 33.3333L148.102 30.4455C146.988 32.1782 145.09 33.8696 141.996 33.8696C138.489 33.8696 136.88 31.9307 135.89 30.0742L152.639 23.1436L151.773 21.1221C150.164 17.1205 146.369 13.8202 141.377 13.8202ZM141.625 18.6056C143.894 18.6056 145.544 19.802 146.245 21.2872L135.065 25.9488C134.57 22.3185 137.994 18.6056 141.625 18.6056Z" fill="#EA4335"/>
<path d="M127.268 1.27911H121.782V38.0776H127.268V1.27911Z" fill="#34A853"/>
</svg>
