<svg width="167" height="50" viewBox="0 0 167 50" fill="none" xmlns="http://www.w3.org/2000/svg">
<path d="M25.1631 0C11.3606 0 0.163147 11.1974 0.163147 25C0.163147 38.8026 11.3606 50 25.1631 50C38.9657 50 50.1631 38.8026 50.1631 25C50.2088 11.1974 39.0114 0 25.1631 0ZM36.6348 36.0603C36.1778 36.7916 35.218 37.0201 34.4867 36.5631C28.5909 32.9525 21.2326 32.1755 12.5032 34.1408C11.6805 34.3236 10.8121 33.8208 10.6293 32.9525C10.4465 32.1298 10.9493 31.2614 11.8176 31.0786C21.3697 28.8848 29.505 29.8446 36.1321 33.8665C36.8633 34.3693 37.0918 35.3291 36.6348 36.0603ZM39.697 29.2504C39.1485 30.1645 37.9145 30.4388 37.0004 29.8903C30.282 25.777 20.0443 24.543 12.0918 26.9653C11.0407 27.2852 9.98947 26.691 9.66955 25.6856C9.34962 24.6344 9.94377 23.5832 10.9493 23.2632C20.0443 20.521 31.3332 21.8464 39.0571 26.5996C39.9712 27.1481 40.2911 28.3364 39.697 29.2504ZM39.9712 22.1664C31.9273 17.3675 18.6275 16.9561 10.9035 19.287C9.66954 19.6526 8.34413 18.9671 7.9785 17.7331C7.61287 16.4991 8.29843 15.1737 9.53243 14.808C18.3533 12.1115 33.0699 12.66 42.3478 18.1444C43.4447 18.7843 43.8103 20.2468 43.1705 21.3437C42.5306 22.4406 41.0681 22.8062 39.9712 22.1664ZM68.2162 23.0804C63.8743 22.0292 63.143 21.3437 63.143 19.7898C63.143 18.3729 64.5141 17.3675 66.5251 17.3675C68.4904 17.3675 70.4099 18.0987 72.4209 19.6069C72.4666 19.6526 72.558 19.6526 72.6494 19.6526C72.7408 19.6526 72.7865 19.6069 72.8322 19.5155L74.9346 16.5448C75.026 16.4077 74.9803 16.2706 74.8889 16.1792C72.4666 14.2596 69.7701 13.2998 66.5708 13.2998C61.909 13.2998 58.6641 16.0877 58.6641 20.1097C58.6641 24.4058 61.4977 25.9141 66.3423 27.1024C70.4556 28.0622 71.1869 28.8391 71.1869 30.2559C71.1869 31.8556 69.7701 32.8154 67.4849 32.8154C64.9712 32.8154 62.9145 31.947 60.5836 29.9817C60.5379 29.936 60.4465 29.8903 60.3551 29.8903C60.2637 29.8903 60.218 29.936 60.1723 29.9817L57.7957 32.8154C57.7043 32.9525 57.7043 33.0896 57.8414 33.2267C60.5379 35.6033 63.8286 36.883 67.3478 36.883C72.3752 36.883 75.6202 34.1408 75.6202 29.8903C75.6202 26.3254 73.4721 24.3601 68.2162 23.0804ZM87.0004 18.83C84.8066 18.83 83.0242 19.6983 81.5617 21.4351V19.4698C81.5617 19.3327 81.4246 19.1956 81.2875 19.1956H77.4026C77.2655 19.1956 77.1284 19.3327 77.1284 19.4698V41.4534C77.1284 41.5905 77.2655 41.7276 77.4026 41.7276H81.2875C81.4246 41.7276 81.5617 41.5905 81.5617 41.4534V34.5064C83.0242 36.1517 84.8066 36.9744 87.0004 36.9744C91.0681 36.9744 95.1357 33.8665 95.1357 27.925C95.1357 21.9378 91.0681 18.83 87.0004 18.83ZM90.6567 27.8793C90.6567 30.8958 88.7829 33.0439 86.1321 33.0439C83.4812 33.0439 81.4703 30.8501 81.4703 27.8793C81.4703 24.9543 83.4812 22.7148 86.1321 22.7148C88.7372 22.7605 90.6567 24.9086 90.6567 27.8793ZM105.648 18.83C100.437 18.83 96.3697 22.8519 96.3697 27.9707C96.3697 33.0439 100.437 37.0201 105.602 37.0201C110.812 37.0201 114.925 32.9982 114.925 27.925C114.925 22.8062 110.858 18.83 105.648 18.83ZM105.648 33.0896C102.86 33.0896 100.803 30.8501 100.803 27.925C100.803 24.9543 102.814 22.8062 105.602 22.8062C108.39 22.8062 110.492 25.0457 110.492 27.9707C110.492 30.9415 108.436 33.0896 105.648 33.0896ZM126.032 19.1499H121.781V14.808C121.781 14.6709 121.644 14.5338 121.507 14.5338H117.622C117.485 14.5338 117.348 14.6709 117.348 14.808V19.1499H115.474C115.337 19.1499 115.2 19.287 115.2 19.4241V22.7605C115.2 22.8976 115.337 23.0347 115.474 23.0347H117.348V31.6271C117.348 35.1005 119.085 36.883 122.512 36.883C123.883 36.883 125.026 36.6088 126.123 35.9689C126.214 35.9232 126.26 35.8318 126.26 35.7404V32.5868C126.26 32.4954 126.214 32.404 126.123 32.3583C126.032 32.3126 125.94 32.3126 125.849 32.3583C125.117 32.7239 124.386 32.9068 123.563 32.9068C122.329 32.9068 121.781 32.3583 121.781 31.0786V23.0804H126.032C126.169 23.0804 126.306 22.9433 126.306 22.8062V19.4698C126.351 19.287 126.214 19.1956 126.032 19.1499ZM140.885 19.1956V18.6472C140.885 17.0932 141.479 16.362 142.851 16.362C143.673 16.362 144.313 16.5448 145.044 16.7733C145.136 16.819 145.227 16.7733 145.319 16.7276C145.41 16.6819 145.456 16.5905 145.456 16.4991V13.2541C145.456 13.117 145.364 13.0256 145.273 12.9799C144.496 12.7514 143.536 12.5228 142.074 12.5228C138.509 12.5228 136.635 14.5338 136.635 18.3272V19.1499H134.761C134.624 19.1499 134.487 19.287 134.487 19.4241V22.7605C134.487 22.8976 134.624 23.0347 134.761 23.0347H136.635V36.2888C136.635 36.426 136.772 36.5631 136.909 36.5631H140.794C140.931 36.5631 141.068 36.426 141.068 36.2888V23.0347H144.679L150.209 36.2888C149.569 37.66 148.975 37.9799 148.106 37.9799C147.421 37.9799 146.69 37.7971 145.958 37.3857C145.867 37.34 145.821 37.34 145.73 37.3857C145.638 37.4314 145.593 37.4771 145.547 37.5228L144.222 40.4022C144.176 40.5393 144.222 40.6764 144.359 40.7678C145.73 41.4991 146.964 41.819 148.472 41.819C151.306 41.819 152.905 40.4936 154.276 36.9287L160.995 19.6069C161.041 19.5155 161.041 19.4241 160.949 19.3327C160.904 19.2413 160.812 19.1956 160.721 19.1956H156.699C156.562 19.1956 156.47 19.287 156.425 19.3784L152.311 31.17L147.787 19.3784C147.741 19.287 147.649 19.1956 147.512 19.1956H140.885ZM132.293 19.1499H128.408C128.271 19.1499 128.134 19.287 128.134 19.4241V36.2888C128.134 36.426 128.271 36.5631 128.408 36.5631H132.293C132.43 36.5631 132.567 36.426 132.567 36.2888V19.4241C132.567 19.287 132.43 19.1499 132.293 19.1499ZM130.373 11.4717C128.819 11.4717 127.585 12.7057 127.585 14.2596C127.585 15.8135 128.819 17.0475 130.373 17.0475C131.927 17.0475 133.161 15.8135 133.161 14.2596C133.116 12.7514 131.882 11.4717 130.373 11.4717ZM164.24 24.5887C162.732 24.5887 161.498 23.3547 161.498 21.8464C161.498 20.3382 162.686 19.1042 164.24 19.1042C165.748 19.1042 166.982 20.3382 166.982 21.8464C166.982 23.3547 165.794 24.5887 164.24 24.5887ZM164.24 19.4241C162.823 19.4241 161.772 20.521 161.772 21.8921C161.772 23.2632 162.823 24.3601 164.194 24.3601C165.611 24.3601 166.662 23.2632 166.662 21.8921C166.708 20.521 165.657 19.4241 164.24 19.4241ZM164.88 22.1207L165.657 23.2175H165.017L164.331 22.2121H163.737V23.2175H163.189V20.3382H164.468C165.154 20.3382 165.565 20.6581 165.565 21.2523C165.52 21.755 165.245 22.0292 164.88 22.1207ZM164.423 20.8409H163.737V21.755H164.423C164.788 21.755 164.971 21.5722 164.971 21.298C164.971 21.0238 164.743 20.8409 164.423 20.8409Z" fill="#1ED760"/>
</svg>
