<svg width="600" height="566" viewBox="0 0 600 566" fill="none" xmlns="http://www.w3.org/2000/svg">
<path d="M484.148 482.457H113.349V113.086H484.148V482.457Z" fill="#AAE0FF"/>
<path d="M3.27656 565.732H596.726C598.533 565.732 600 564.265 600 562.455C600 560.646 598.533 559.179 596.726 559.179H3.27656C1.46695 559.179 0 560.646 0 562.455C0 564.265 1.46695 565.732 3.27656 565.732Z" fill="#2D5B98"/>
<path d="M163.191 533.215C144.877 533.215 130.031 518.369 130.031 500.054V454.848H196.352V500.054C196.352 518.369 181.505 533.215 163.191 533.215Z" fill="#5896FA"/>
<path d="M130.03 559.179H126.355V489.011H130.03V559.179Z" fill="#0E0E0E"/>
<path d="M200.027 559.179H196.351V489.011H200.027V559.179Z" fill="#0E0E0E"/>
<path d="M171.901 559.179H168.226V489.011H171.901V559.179Z" fill="#0E0E0E"/>
<path d="M126.355 536.892V533.217H196.522V536.892H126.355Z" fill="#0E0E0E"/>
<path d="M214.836 380.163C218.838 385.929 210.782 390.898 209.528 398.888C208.273 406.876 217.426 411.374 207.719 421.835C201.74 428.278 196.694 419.72 191.834 429.595C186.975 439.471 190.804 441.136 185.342 444.688C175.819 450.882 161.251 437.192 166.151 427.328C171.05 417.464 180.961 418.347 176.376 410.23C171.791 402.114 170.085 398.618 177.992 394.447C187.779 389.286 196.403 394.027 197.19 386.475C197.977 378.924 209.541 372.539 214.836 380.163Z" fill="#FFCA59"/>
<path d="M173.002 454.396L171.355 454.069C179.071 415.069 204.651 387.759 204.909 387.489L206.127 388.645C205.872 388.913 180.621 415.888 173.002 454.396Z" fill="#0E0E0E"/>
<path d="M86.5809 365.755C82.4435 374.188 94.1033 379.143 97.37 389.465C100.637 399.784 88.6076 403.43 103.557 415.324C112.764 422.651 114.691 418.071 118.076 434.456C121.057 448.882 132.018 435.155 140.215 443.622C150.791 454.546 167.318 430.569 158.851 418.501C150.384 406.434 140.503 409.552 144.938 397.892C149.374 386.228 144.084 377.443 132.781 373.513C118.793 368.652 113.761 380.393 111.201 370.558C108.64 360.723 92.0531 354.601 86.5809 365.755Z" fill="#ED5A24"/>
<path d="M156.869 455.574C139.034 406.124 100.202 375.532 99.8124 375.229L101.192 373.452C101.587 373.76 140.929 404.753 158.983 454.811L156.869 455.574Z" fill="#0E0E0E"/>
<path d="M347.294 176.85C347.294 255.177 283.797 318.674 205.47 318.674C127.142 318.674 63.6443 255.177 63.6443 176.85C63.6443 98.5215 127.142 35.0243 205.47 35.0243C283.797 35.0243 347.294 98.5215 347.294 176.85Z" stroke="#2E77E6" stroke-width="8.731" stroke-miterlimit="10" stroke-dasharray="13.1 13.1"/>
<path d="M241.378 167.539C241.528 166.433 241.632 165.311 241.632 164.164C241.632 150.359 230.44 139.168 216.636 139.168C206.28 139.168 197.395 145.466 193.602 154.441C190.516 151.693 186.461 150.01 182.004 150.01C172.357 150.01 164.537 157.829 164.537 167.476H161.278C152.002 167.476 144.413 175.065 144.413 184.34V184.341C144.413 193.616 152.002 201.205 161.278 201.205H240.133C249.409 201.205 256.998 193.616 256.998 184.341V184.34C256.998 175.485 250.075 168.184 241.378 167.539Z" fill="white"/>
<path d="M256.888 350.994H151.312C147.759 350.994 144.878 348.114 144.878 344.562V255.987C144.878 252.435 147.759 249.555 151.312 249.555H256.888C260.44 249.555 263.321 252.435 263.321 255.987V344.562C263.321 348.114 260.44 350.994 256.888 350.994Z" fill="#5896FA"/>
<path d="M239.959 310.806H168.555C166.219 310.806 164.307 308.892 164.307 306.558C164.307 304.221 166.219 302.309 168.555 302.309H239.959C242.293 302.309 244.207 304.221 244.207 306.558C244.207 308.892 242.293 310.806 239.959 310.806Z" fill="white"/>
<path d="M239.959 324.488H168.555C166.219 324.488 164.307 322.577 164.307 320.24C164.307 317.903 166.219 315.991 168.555 315.991H239.959C242.293 315.991 244.207 317.903 244.207 320.24C244.207 322.577 242.293 324.488 239.959 324.488Z" fill="white"/>
<path d="M181.888 320.617C181.888 321.441 181.218 322.111 180.392 322.111C179.566 322.111 178.897 321.441 178.897 320.617C178.897 319.79 179.566 319.12 180.392 319.12C181.218 319.12 181.888 319.79 181.888 320.617Z" fill="#80B2FF"/>
<path d="M187.015 320.617C187.015 321.441 186.345 322.111 185.519 322.111C184.693 322.111 184.024 321.441 184.024 320.617C184.024 319.79 184.693 319.12 185.519 319.12C186.345 319.12 187.015 319.79 187.015 320.617Z" fill="#80B2FF"/>
<path d="M192.145 320.617C192.145 321.441 191.475 322.111 190.649 322.111C189.823 322.111 189.153 321.441 189.153 320.617C189.153 319.79 189.823 319.12 190.649 319.12C191.475 319.12 192.145 319.79 192.145 320.617Z" fill="#80B2FF"/>
<path d="M197.271 320.617C197.271 321.441 196.602 322.111 195.776 322.111C194.95 322.111 194.28 321.441 194.28 320.617C194.28 319.79 194.95 319.12 195.776 319.12C196.602 319.12 197.271 319.79 197.271 320.617Z" fill="#80B2FF"/>
<path d="M202.401 320.617C202.401 321.441 201.732 322.111 200.905 322.111C200.079 322.111 199.41 321.441 199.41 320.617C199.41 319.79 200.079 319.12 200.905 319.12C201.732 319.12 202.401 319.79 202.401 320.617Z" fill="#80B2FF"/>
<path d="M207.528 320.617C207.528 321.441 206.858 322.111 206.032 322.111C205.206 322.111 204.537 321.441 204.537 320.617C204.537 319.79 205.206 319.12 206.032 319.12C206.858 319.12 207.528 319.79 207.528 320.617Z" fill="#80B2FF"/>
<path d="M212.656 320.617C212.656 321.441 211.987 322.111 211.161 322.111C210.335 322.111 209.665 321.441 209.665 320.617C209.665 319.79 210.335 319.12 211.161 319.12C211.987 319.12 212.656 319.79 212.656 320.617Z" fill="#80B2FF"/>
<path d="M217.784 320.617C217.784 321.441 217.115 322.111 216.289 322.111C215.463 322.111 214.793 321.441 214.793 320.617C214.793 319.79 215.463 319.12 216.289 319.12C217.115 319.12 217.784 319.79 217.784 320.617Z" fill="#80B2FF"/>
<path d="M222.913 320.617C222.913 321.441 222.243 322.111 221.417 322.111C220.591 322.111 219.921 321.441 219.921 320.617C219.921 319.79 220.591 319.12 221.417 319.12C222.243 319.12 222.913 319.79 222.913 320.617Z" fill="#80B2FF"/>
<path d="M220.694 274.006C220.694 283.073 213.345 290.421 204.28 290.421C195.215 290.421 187.867 283.073 187.867 274.006C187.867 264.942 195.215 257.594 204.28 257.594C213.345 257.594 220.694 264.942 220.694 274.006Z" fill="white"/>
<path d="M204.305 273.348C205.907 273.348 207.387 272.567 208.332 271.375C209.03 270.511 209.441 269.402 209.441 268.168C209.441 265.334 207.14 262.991 204.305 262.991C201.429 262.991 199.127 265.334 199.127 268.168C199.127 269.402 199.537 270.511 200.237 271.375C201.182 272.567 202.661 273.348 204.305 273.348Z" fill="#005CEA"/>
<path d="M213.401 282.573C213.401 285.841 195.155 285.841 195.155 282.573L195.161 278.766C195.882 273.56 211.918 273.34 213.404 278.766L213.401 282.573Z" fill="#005CEA"/>
<path d="M170.709 320.973V321.843C170.709 322.001 170.575 322.111 170.419 322.111C170.262 322.111 170.151 322.001 170.151 321.843V320.973C169.995 320.885 169.883 320.727 169.883 320.526C169.883 320.237 170.129 319.991 170.419 319.991C170.709 319.991 170.954 320.237 170.954 320.526C170.954 320.727 170.842 320.885 170.709 320.973ZM169.349 319.228C169.349 318.65 169.705 318.125 170.425 318.125C171.143 318.125 171.512 318.617 171.512 319.228V319.455H169.349V319.228ZM172.096 319.455V319.228C172.096 318.307 171.346 317.557 170.425 317.557C169.503 317.557 168.753 318.307 168.753 319.228V319.455H168.499V322.47C168.499 322.989 172.36 322.989 172.36 322.47V319.455H172.096Z" fill="#5896FA"/>
<path d="M170.43 306.246C170.768 306.246 171.08 306.083 171.28 305.831C171.427 305.649 171.514 305.416 171.514 305.154C171.514 304.557 171.028 304.062 170.43 304.062C169.823 304.062 169.337 304.557 169.337 305.154C169.337 305.416 169.424 305.649 169.572 305.831C169.771 306.083 170.083 306.246 170.43 306.246Z" fill="#5896FA"/>
<path d="M172.348 308.196C172.348 308.884 168.478 308.884 168.478 308.196L168.498 307.393C168.651 306.293 172.035 306.247 172.348 307.393L172.348 308.196Z" fill="#5896FA"/>
<path d="M195.441 307.802H179.793C179.108 307.802 178.547 307.243 178.547 306.558C178.547 305.87 179.108 305.31 179.793 305.31H195.441C196.126 305.31 196.687 305.87 196.687 306.558C196.687 307.243 196.126 307.802 195.441 307.802Z" fill="#80B2FF"/>
<path d="M216.077 307.802H200.429C199.744 307.802 199.183 307.243 199.183 306.558C199.183 305.87 199.744 305.31 200.429 305.31H216.077C216.762 305.31 217.323 305.87 217.323 306.558C217.323 307.243 216.762 307.802 216.077 307.802Z" fill="#80B2FF"/>
<path d="M209.49 337.744H195.31C193.299 337.744 191.67 336.114 191.67 334.106C191.67 332.096 193.299 330.466 195.31 330.466H209.49C211.5 330.466 213.129 332.096 213.129 334.106C213.129 336.114 211.5 337.744 209.49 337.744Z" fill="#1251B3"/>
<path d="M23.8956 189.562C23.8961 189.444 23.8964 189.392 23.8964 189.381C23.8961 189.402 23.8956 189.562 23.8956 189.562Z" fill="#D9FFFF"/>
<path d="M23.8956 189.562C23.8961 189.444 23.8964 189.392 23.8964 189.381C23.8961 189.402 23.8956 189.562 23.8956 189.562Z" fill="#D9FFFF"/>
<path d="M93.6923 189.874C93.6923 189.874 93.6928 189.714 93.6931 189.692C93.6931 189.704 93.6928 189.756 93.6923 189.874Z" fill="#D9FFFF"/>
<path d="M93.6923 189.874C93.6923 189.874 93.6928 189.714 93.6931 189.692C93.6931 189.704 93.6928 189.756 93.6923 189.874Z" fill="#D9FFFF"/>
<path d="M58.9375 170.704C50.804 179.417 37.8254 186.557 23.937 189.599C23.933 190.527 23.9099 195.666 23.8042 219.352C23.6629 250.951 53.7341 266.391 58.4027 268.76C62.9264 266.678 93.3773 251.261 93.5183 219.664C93.6241 195.977 93.6471 190.838 93.6514 189.911C79.7911 186.745 66.9929 179.489 58.9375 170.704Z" fill="white"/>
<path d="M58.8526 176.414C50.8877 183.721 39.8531 189.464 27.7191 192.594L27.5995 219.365C27.5446 231.614 32.4112 242.697 42.0642 252.304C48.4069 258.617 55.0757 262.533 58.4593 264.292C58.605 264.219 58.7648 264.134 58.9219 264.053V176.476C58.8989 176.456 58.8748 176.435 58.8526 176.414Z" fill="#296ACC"/>
<path d="M58.9244 176.477V264.054C62.4433 262.223 68.8387 258.441 74.9638 252.452C84.7019 242.93 89.6676 231.893 89.722 219.644L89.8419 192.871C77.7708 189.643 66.8179 183.825 58.9244 176.477Z" fill="#2E77E6"/>
<path d="M60.3483 226.077V231.956C60.3483 232.738 59.7115 233.389 58.9285 233.389C58.1327 233.389 57.4955 232.738 57.4955 231.956V226.064C56.288 225.52 55.4389 224.299 55.4389 222.892C55.4389 220.968 57.0043 219.416 58.9285 219.416C60.8524 219.416 62.4053 220.968 62.4053 222.892C62.4053 224.312 61.569 225.533 60.3483 226.077ZM44.8232 215.063V235.803C44.8232 238.113 73.0209 238.113 73.0209 235.803V215.063H44.8232Z" fill="white"/>
<path d="M70.5548 213.586H67.7004V212.19C67.7004 207.351 63.7634 203.414 58.9254 203.414C54.0863 203.414 50.1497 207.351 50.1497 212.19V213.586H47.2952V212.19C47.2952 205.777 52.5123 200.56 58.9254 200.56C65.3375 200.56 70.5548 205.777 70.5548 212.19V213.586Z" fill="white"/>
<path d="M267.649 63.5792H216.714V0H267.649V63.5792Z" fill="#296ACC"/>
<path d="M274.256 70.1449H223.319V6.56543H274.256V70.1449Z" fill="white"/>
<path d="M274.256 70.1449H223.319V6.56543H274.256V70.1449Z" stroke="#5896FA" stroke-width="6.341" stroke-miterlimit="10"/>
<path d="M282.643 76.5905H231.709V13.0111H282.643V76.5905Z" fill="white"/>
<path d="M282.643 76.5905H231.709V13.0111H282.643V76.5905Z" stroke="#5896FA" stroke-width="6.341" stroke-miterlimit="10"/>
<path d="M288.746 83.156H237.812V19.5765H288.746V83.156Z" fill="#5896FA"/>
<path d="M280.824 34.1508H254.477V30.0157H280.824V34.1508Z" fill="#005CEA"/>
<path d="M280.821 43.8653H246.682V39.7302H280.821V43.8653Z" fill="#005CEA"/>
<path d="M280.821 53.5799H246.682V49.4448H280.821V53.5799Z" fill="#005CEA"/>
<path d="M280.821 63.2945H246.682V59.1594H280.821V63.2945Z" fill="#005CEA"/>
<path d="M280.821 73.0105H246.682V68.8755H280.821V73.0105Z" fill="#005CEA"/>
<path d="M122.96 69.2039C122.96 79.1396 114.905 87.1942 104.97 87.1942C95.0341 87.1942 86.9795 79.1396 86.9795 69.2039C86.9795 59.2682 95.0341 51.2136 104.97 51.2136C114.905 51.2136 122.96 59.2682 122.96 69.2039Z" fill="white"/>
<path d="M95.6865 84.6092C87.1701 79.4735 84.4337 68.4245 89.5694 59.9081C94.6971 51.4051 105.746 48.6693 114.262 53.805C122.765 58.9327 125.501 69.9811 120.374 78.4844C115.238 87.0005 104.189 89.7366 95.6865 84.6092ZM133.353 86.3112C135.686 82.4428 137.144 78.2625 137.762 74.0434L139.102 74.2399L141.748 74.6288L141.783 74.6318C142.497 69.8047 142.254 64.9228 141.087 60.2583L137.151 61.2335C136.094 57.0133 134.234 52.9923 131.581 49.4486L134.845 47.023C132.053 43.2328 128.469 39.9198 124.191 37.34L122.089 40.8257C118.207 38.4844 114.041 37.0343 109.822 36.4168L110.41 32.396C105.583 31.6815 100.693 31.938 96.0366 33.0912L97.0115 37.0279C92.7914 38.0842 88.7706 39.9447 85.2264 42.597L82.8011 39.3338C79.0111 42.1256 75.6976 45.7092 73.1175 49.9872L76.6037 52.0894C74.2627 55.9715 72.8121 60.1378 72.1945 64.3569L69.3503 63.938L68.1872 63.7768L68.1741 63.7691C67.4599 68.5956 67.7161 73.4858 68.869 78.142L72.8062 77.1671C73.8623 81.3873 75.7359 85.416 78.3882 88.96L75.125 91.3856C77.917 95.1756 81.4875 98.4811 85.7652 101.061L87.8674 97.5752C91.7492 99.9159 95.9293 101.375 100.148 101.992L99.6863 105.116L99.56 106.013C104.387 106.727 109.264 106.463 113.92 105.309L112.945 101.372C117.165 100.316 121.194 98.4428 124.751 95.7982L127.176 99.0614C130.954 96.2616 134.259 92.6911 136.839 88.4134L133.353 86.3112Z" fill="#005CEA"/>
<path d="M56.703 101.452C52.3364 104.341 46.4637 103.146 43.5743 98.7791C40.6891 94.4192 41.8849 88.5468 46.2515 85.6574C50.6114 82.7722 56.4838 83.9677 59.3687 88.3276C62.2582 92.6942 61.0629 98.5669 56.703 101.452ZM66.0238 83.9238C64.7113 81.9402 63.0527 80.3022 61.186 79.0553L61.5822 78.4623L62.3652 77.2917L62.3743 77.2759C60.24 75.8459 57.8634 74.8581 55.3817 74.3589L54.956 76.4512C52.7104 76.0001 50.378 75.9763 48.0932 76.4367L47.6772 74.3369C45.2439 74.8081 42.8585 75.7637 40.665 77.2149L41.8477 79.0023C39.8571 80.3193 38.226 81.9731 36.9789 83.84L35.1998 82.6517C33.7692 84.7858 32.7863 87.169 32.2825 89.6441L34.375 90.07C33.9237 92.3157 33.8999 94.6481 34.3606 96.9329L32.2605 97.3488C32.7319 99.7822 33.6873 102.168 35.1387 104.361L36.9261 103.178C38.2432 105.169 39.8967 106.8 41.7636 108.047L40.9217 109.305L40.5823 109.822L40.5756 109.826C42.7096 111.256 45.0929 112.24 47.568 112.744L47.9939 110.651C50.2393 111.102 52.5787 111.122 54.8631 110.661L55.2794 112.761C57.7127 112.29 60.0912 111.339 62.2849 109.887L61.102 108.1C63.0926 106.783 64.7306 105.125 65.9777 103.258L67.359 104.184L67.7566 104.446C69.1871 102.312 70.1634 99.9332 70.6672 97.4583L68.5746 97.0322C69.026 94.7868 69.0452 92.4474 68.5915 90.1584L70.6913 89.7421C70.2134 87.3133 69.2623 84.9346 67.8109 82.7414L66.0238 83.9238Z" fill="#1251B3"/>
<path d="M360.252 120.483H316.516C315.595 120.483 314.848 119.737 314.848 118.816V94.0007C314.848 93.0798 315.595 92.3335 316.516 92.3335H360.252C361.172 92.3335 361.919 93.0798 361.919 94.0007V118.816C361.919 119.737 361.172 120.483 360.252 120.483Z" fill="#005CEA"/>
<path d="M361.919 102.506H314.848V97.649H361.919V102.506Z" fill="#5896FA"/>
<path d="M325.63 115.082H318.711C318.269 115.082 317.913 115.439 317.913 115.878C317.913 116.319 318.269 116.675 318.711 116.675H325.63C326.069 116.675 326.428 116.319 326.428 115.878C326.428 115.439 326.069 115.082 325.63 115.082Z" fill="#D1F5FF"/>
<path d="M336.275 115.082H329.353C328.914 115.082 328.558 115.439 328.558 115.878C328.558 116.319 328.914 116.675 329.353 116.675H336.275C336.714 116.675 337.07 116.319 337.07 115.878C337.07 115.439 336.714 115.082 336.275 115.082Z" fill="#D1F5FF"/>
<path d="M346.917 115.082H339.995C339.556 115.082 339.2 115.439 339.2 115.878C339.2 116.319 339.556 116.675 339.995 116.675H346.917C347.356 116.675 347.712 116.319 347.712 115.878C347.712 115.439 347.356 115.082 346.917 115.082Z" fill="#D1F5FF"/>
<path d="M357.559 115.082H350.639C350.2 115.082 349.842 115.439 349.842 115.878C349.842 116.319 350.2 116.675 350.639 116.675H357.559C358.001 116.675 358.357 116.319 358.357 115.878C358.357 115.439 358.001 115.082 357.559 115.082Z" fill="#D1F5FF"/>
<path d="M318.393 93.7614C317.906 93.7614 317.512 94.1549 317.512 94.6405V94.9494C317.512 95.4347 317.906 95.8285 318.393 95.8285C318.877 95.8285 319.271 95.4347 319.271 94.9494V94.6405C319.271 94.1549 318.877 93.7614 318.393 93.7614Z" fill="#D1F5FF"/>
<path d="M320.287 94.7949C320.287 95.3656 320.75 95.8285 321.32 95.8285H324.985C325.555 95.8285 326.018 95.3656 326.018 94.7949C326.018 94.2242 325.555 93.7614 324.985 93.7614H321.32C320.75 93.7614 320.287 94.2242 320.287 94.7949Z" fill="#D1F5FF"/>
<path d="M319.805 105.119H324.535C325.293 105.119 325.908 105.733 325.908 106.492V110.571C325.908 111.329 325.293 111.944 324.535 111.944H319.805C319.045 111.944 318.432 111.329 318.432 110.571V106.492C318.432 105.733 319.045 105.119 319.805 105.119Z" fill="#5896FA"/>
<path d="M342.929 192.186V188.971C342.929 187.51 341.746 186.327 340.287 186.327H312.142C310.683 186.327 309.497 187.51 309.497 188.971V245.81H382.299V192.186H342.929Z" fill="#1251B3"/>
<path d="M385.327 194.14H313.939L309.5 245.811H381.943L385.327 194.14Z" fill="white"/>
<path d="M382.299 245.811H309.5L317.223 194.783C317.451 193.291 318.733 192.187 320.243 192.187H386.866C388.735 192.187 390.164 193.85 389.886 195.697L382.299 245.811Z" fill="#3383FF"/>
<path d="M406.6 194.14C406.6 203.353 399.134 210.821 389.92 210.821C380.708 210.821 373.24 203.353 373.24 194.14C373.24 184.928 380.708 177.46 389.92 177.46C399.134 177.46 406.6 184.928 406.6 194.14Z" fill="#005CEA"/>
<path d="M389.922 178.069C381.058 178.069 373.852 185.278 373.852 194.139C373.852 203 381.058 210.211 389.922 210.211C398.785 210.211 405.991 203 405.991 194.139C405.991 185.278 398.785 178.069 389.922 178.069ZM389.922 211.43C380.386 211.43 372.629 203.674 372.629 194.139C372.629 184.607 380.386 176.85 389.922 176.85C399.457 176.85 407.215 184.607 407.215 194.139C407.215 203.674 399.457 211.43 389.922 211.43Z" fill="white"/>
<path d="M390.734 197.392V200.74C390.734 201.186 390.37 201.556 389.925 201.556C389.47 201.556 389.109 201.186 389.109 200.74V197.385C388.421 197.075 387.936 196.38 387.936 195.579C387.936 194.483 388.828 193.599 389.925 193.599C391.02 193.599 391.904 194.483 391.904 195.579C391.904 196.387 391.427 197.083 390.734 197.392ZM381.892 191.12V202.931C381.892 204.246 397.948 204.246 397.948 202.931V191.12H381.892Z" fill="white"/>
<path d="M396.542 190.278H394.917V189.483C394.917 186.727 392.677 184.485 389.919 184.485C387.165 184.485 384.922 186.727 384.922 189.483V190.278H383.297V189.483C383.297 185.831 386.268 182.86 389.919 182.86C393.574 182.86 396.542 185.831 396.542 189.483V190.278Z" fill="white"/>
<path d="M338.385 54.5424C338.385 58.0693 335.526 60.9285 332 60.9285C328.472 60.9285 325.613 58.0693 325.613 54.5424C325.613 51.0156 328.472 48.1566 332 48.1566C335.526 48.1566 338.385 51.0156 338.385 54.5424Z" fill="#AAE0FF"/>
<path d="M170.692 78.372C170.692 81.8989 167.833 84.7578 164.306 84.7578C160.779 84.7578 157.92 81.8989 157.92 78.372C157.92 74.8452 160.779 71.9862 164.306 71.9862C167.833 71.9862 170.692 74.8452 170.692 78.372Z" fill="#AAE0FF"/>
<path d="M380.119 163.397C380.119 165.242 378.623 166.737 376.779 166.737C374.934 166.737 373.438 165.242 373.438 163.397C373.438 161.551 374.934 160.056 376.779 160.056C378.623 160.056 380.119 161.551 380.119 163.397Z" fill="white"/>
<path d="M30.4851 169.663C30.4851 171.508 28.9895 173.003 27.1442 173.003C25.2993 173.003 23.8037 171.508 23.8037 169.663C23.8037 167.817 25.2993 166.322 27.1442 166.322C28.9895 166.322 30.4851 167.817 30.4851 169.663Z" fill="#AAE0FF"/>
<path d="M85.7942 291.409C85.7942 294.935 82.9352 297.794 79.4084 297.794C75.8815 297.794 73.0226 294.935 73.0226 291.409C73.0226 287.881 75.8815 285.022 79.4084 285.022C82.9352 285.022 85.7942 287.881 85.7942 291.409Z" fill="#AAE0FF"/>
<path d="M181.886 14.9774C181.275 14.9774 180.779 14.4819 180.779 13.8711V2.02486C180.779 1.41371 181.275 0.918213 181.886 0.918213C182.497 0.918213 182.992 1.41371 182.992 2.02486V13.8711C182.992 14.4819 182.497 14.9774 181.886 14.9774Z" fill="#AAE0FF"/>
<path d="M174.854 7.94658C174.854 7.33544 175.35 6.84021 175.96 6.84021H187.807C188.418 6.84021 188.913 7.33544 188.913 7.94658C188.913 8.55773 188.418 9.05296 187.807 9.05296H175.96C175.35 9.05296 174.854 8.55773 174.854 7.94658Z" fill="#AAE0FF"/>
<path d="M307.82 167.086C307.207 167.086 306.712 166.59 306.712 165.979V154.133C306.712 153.522 307.207 153.027 307.82 153.027C308.431 153.027 308.926 153.522 308.926 154.133V165.979C308.926 166.59 308.431 167.086 307.82 167.086Z" fill="white"/>
<path d="M300.792 160.057C300.792 159.446 301.287 158.95 301.897 158.95H313.742C314.353 158.95 314.848 159.446 314.848 160.057C314.848 160.668 314.353 161.163 313.742 161.163H301.897C301.287 161.163 300.792 160.668 300.792 160.057Z" fill="white"/>
<path d="M295.775 323.111C295.165 323.111 294.67 322.616 294.67 322.005V310.16C294.67 309.55 295.165 309.052 295.775 309.052C296.389 309.052 296.884 309.55 296.884 310.16V322.005C296.884 322.616 296.389 323.111 295.775 323.111Z" fill="white"/>
<path d="M288.745 316.083C288.745 315.472 289.24 314.977 289.853 314.977H301.698C302.309 314.977 302.804 315.472 302.804 316.083C302.804 316.696 302.309 317.191 301.698 317.191H289.853C289.24 317.191 288.745 316.696 288.745 316.083Z" fill="white"/>
<path d="M200.722 234.69C200.722 236.647 199.136 238.231 197.18 238.231C195.224 238.231 193.638 236.647 193.638 234.69C193.638 232.736 195.224 231.148 197.18 231.148C199.136 231.148 200.722 232.736 200.722 234.69Z" stroke="white" stroke-width="4.226" stroke-miterlimit="10"/>
<path d="M284.231 559.141H270.369L268.935 529.004H285.663L284.231 559.141Z" fill="#0E0E0E"/>
<path d="M525.121 559.141H511.26L509.825 529.004H526.553L525.121 559.141Z" fill="#0E0E0E"/>
<path d="M513.037 476.701C511.509 481.439 509.844 486.303 508.021 491.293H277.925C277.925 491.293 248.23 370.427 277.925 348.324C278.686 347.759 279.596 347.202 280.659 346.656C320.652 326.108 481 321.281 513.554 347.719C513.803 347.917 514.033 348.12 514.255 348.324C526.251 359.334 536.68 403.289 513.037 476.701Z" fill="#EA7B00"/>
<path d="M364.676 491.293H277.975L286.432 406.581C301.548 413.14 341.799 447.777 364.676 491.293Z" fill="#982C20"/>
<path d="M513.037 476.701C511.509 481.439 509.844 486.303 508.021 491.293H424.45C438.822 464.639 473.67 424.262 507.512 405.679L513.037 476.701Z" fill="#982C20"/>
<path d="M541.867 405.394H509.966C504.604 405.394 500.072 409.367 499.368 414.683L489.196 491.613H302.753L292.581 414.683C291.877 409.367 287.345 405.394 281.983 405.394H250.082C243.424 405.394 238.389 411.409 239.556 417.963L257.267 546.075H274.787H534.117H534.679L552.392 417.963C553.56 411.409 548.524 405.394 541.867 405.394Z" fill="#EA7B00"/>
<path d="M487.335 449.594C502.347 454.619 499.421 486.405 487.335 491.29H305.218C291.616 487.78 290.468 445.737 310.082 448.898C430.129 471.47 435.943 435.463 487.335 449.594Z" fill="#F2B066"/>
<path d="M348.531 417.375C348.474 425.582 348.916 433.308 349.8 440.075H435.193L440.25 356.691C435.177 326.236 421.292 318.856 399.312 318.856C379.642 318.856 366.541 334.901 358.58 356.381C351.697 374.94 348.654 397.549 348.531 417.375Z" fill="#007880"/>
<path d="M348.529 418.986L379.431 417.125C362.275 411.509 360.91 385.176 378.35 368.793L358.578 356.38C351.696 374.939 348.652 399.158 348.529 418.986Z" fill="#005459"/>
<path d="M342.648 457.303H459.973V417.377H354.288L342.648 457.303Z" fill="#0E0E0E"/>
<path d="M474.961 444.633L443.448 559.141H418.874C426.653 510.413 424.913 478.737 432.229 438.275C438.648 405.063 482.601 413.854 474.961 444.633Z" fill="#0E0E0E"/>
<path d="M434.622 559.142C434.622 559.067 434.616 558.992 434.616 558.914C434.616 550.426 441.499 543.546 449.987 543.546C458.476 543.546 465.356 550.426 465.356 558.914C465.356 558.992 465.353 559.067 465.35 559.142H434.622Z" fill="#B15626"/>
<path d="M452.949 543.833L447.362 542.125C443.676 534.87 427.946 535.767 430.139 544.598C423.966 545.516 420.721 542.443 420.721 542.443L418.874 559.142H452.196L452.949 543.833Z" fill="#B15626"/>
<path d="M336.585 444.633L368.1 559.141H392.672C384.892 510.413 386.635 478.737 379.319 438.275C372.9 405.063 328.945 413.854 336.585 444.633Z" fill="#0E0E0E"/>
<path d="M376.927 559.142C376.927 559.067 376.932 558.992 376.932 558.914C376.932 550.426 370.05 543.546 361.561 543.546C353.073 543.546 346.191 550.426 346.191 558.914C346.191 558.992 346.196 559.067 346.199 559.142H376.927Z" fill="#B15626"/>
<path d="M358.597 543.833L364.183 542.125C367.872 534.87 383.599 535.767 381.409 544.598C387.58 545.516 390.827 542.443 390.827 542.443L392.671 559.142H359.349L358.597 543.833Z" fill="#B15626"/>
<path d="M386.151 321.535C397.677 328.53 399.318 349.3 393.41 357.575L360.524 382.074L394.007 399.316L388.568 417.126C388.568 417.126 353.618 414.28 336.512 396.733C320.087 379.884 360.131 330.393 386.151 321.535Z" fill="#007880"/>
<path d="M409.531 353.043C399.674 340.662 406.482 321.535 419.047 322.097C459.972 336.505 472.604 376.506 459.64 394.463C448.531 409.847 399.674 415.771 399.674 415.771V398.928L433.62 391.593C433.62 391.593 416.116 364.473 409.531 353.043Z" fill="#007880"/>
<path d="M373.672 411.499C373.038 405.859 376.338 398.805 384.827 397.266C399.654 394.573 405.022 402.708 406.424 408.522C406.788 410.037 405.41 411.641 404.138 411.499C402.864 411.36 401.97 410.64 401.75 409.486C401.488 408.096 400.752 406.378 399.162 405.481C400.696 408.485 400.056 411.499 395.88 411.499H373.672Z" fill="#F7A594"/>
<path d="M407.149 411.485L418.818 352.979H421.292C420.502 357.007 409.023 415.549 408.664 417.377C405.605 417.377 377.513 417.377 373.696 417.377L369.876 411.485H407.149Z" fill="#99C1FF"/>
<path d="M421.29 352.979H508.117L495.273 417.377H408.663L421.29 352.979Z" fill="white"/>
<path d="M395.975 325.728C395.975 332.385 415.931 336.802 422.455 329.805C423.443 328.753 424.12 327.452 424.382 325.856L428.141 308.994L404.305 300.008L403.596 302.211L395.975 325.728Z" fill="#F7A594"/>
<path d="M424.383 325.856L428.141 308.994L405.591 302.923C399.755 320.293 420.584 334.173 424.383 325.856Z" fill="#F4856D"/>
<path d="M402.545 293.528C401.289 310.101 414.387 324.696 425.376 325.437C436.365 326.176 451.495 313.902 452.75 297.33C454.006 280.757 443.783 266.47 429.919 265.421C416.055 264.371 403.8 276.955 402.545 293.528Z" fill="#F7A594"/>
<path d="M420.919 266.677C436.113 257.053 444.479 266.104 452.046 275.704C457.355 282.439 461.116 287.279 467.725 288.29C455.012 304.325 429.59 293.749 421.58 277.682C420.79 286.826 410.01 294.402 402.545 293.529C400.127 283.351 407.176 262.777 420.919 266.677Z" fill="#0E0E0E"/>
<path d="M398.828 293.748C398.828 297.403 401.791 300.363 405.443 300.363C409.097 300.363 412.058 297.403 412.058 293.748C412.058 290.094 409.097 287.134 405.443 287.134C401.791 287.134 398.828 290.094 398.828 293.748Z" fill="#F7A594"/>
</svg>
